<svg width="57" height="50" viewBox="0 0 57 50" fill="none" xmlns="http://www.w3.org/2000/svg">
<g id="Social Media / Instagram">
<rect id="Logo Container" x="0.509033" width="55.6748" height="50" rx="25" fill="#0E2A38"/>
<g id="Group 15">
<path id="Vector" d="M23.7133 25.0638C23.7133 22.7607 25.7911 20.8931 28.3549 20.8931C30.9187 20.8931 32.9976 22.7607 32.9976 25.0638C32.9976 27.367 30.9187 29.2345 28.3549 29.2345C25.7911 29.2345 23.7133 27.367 23.7133 25.0638ZM21.2035 25.0638C21.2035 28.612 24.4052 31.4881 28.3549 31.4881C32.3046 31.4881 35.5063 28.612 35.5063 25.0638C35.5063 21.5157 32.3046 18.6395 28.3549 18.6395C24.4052 18.6395 21.2035 21.5157 21.2035 25.0638ZM34.1182 18.3848C34.118 18.6817 34.2159 18.9721 34.3994 19.219C34.583 19.466 34.8439 19.6585 35.1492 19.7722C35.4546 19.886 35.7906 19.9158 36.1148 19.858C36.439 19.8002 36.7369 19.6573 36.9707 19.4474C37.2045 19.2376 37.3638 18.9701 37.4284 18.6789C37.493 18.3877 37.4601 18.0858 37.3337 17.8114C37.2073 17.5371 36.9932 17.3025 36.7185 17.1374C36.4437 16.9724 36.1206 16.8842 35.7901 16.8841H35.7894C35.3463 16.8843 34.9215 17.0424 34.6081 17.3238C34.2948 17.6052 34.1185 17.9868 34.1182 18.3848ZM22.7284 35.2476C21.3706 35.192 20.6325 34.9889 20.1421 34.8172C19.4918 34.5898 19.0279 34.319 18.5401 33.8814C18.0523 33.4438 17.7504 33.0274 17.4984 32.4433C17.3072 32.0029 17.081 31.3397 17.0193 30.1199C16.9518 28.8012 16.9383 28.405 16.9383 25.0639C16.9383 21.7229 16.9529 21.3278 17.0193 20.008C17.0811 18.7882 17.309 18.1263 17.4984 17.6846C17.7515 17.1005 18.053 16.6837 18.5401 16.2455C19.0272 15.8073 19.4907 15.5361 20.1421 15.3097C20.6323 15.1379 21.3706 14.9347 22.7284 14.8793C24.1964 14.8186 24.6374 14.8065 28.3549 14.8065C32.0724 14.8065 32.5139 14.8196 33.9831 14.8793C35.341 14.9348 36.0778 15.1395 36.5694 15.3097C37.2197 15.5361 37.6836 15.8079 38.1714 16.2455C38.6592 16.6831 38.96 17.1005 39.2131 17.6846C39.4043 18.125 39.6305 18.7882 39.6922 20.008C39.7597 21.3278 39.7732 21.7229 39.7732 25.0639C39.7732 28.405 39.7597 28.8001 39.6922 30.1199C39.6304 31.3397 39.4031 32.0027 39.2131 32.4433C38.96 33.0274 38.6585 33.4442 38.1714 33.8814C37.6843 34.3186 37.2197 34.5898 36.5694 34.8172C36.0792 34.989 35.341 35.1921 33.9831 35.2476C32.5151 35.3082 32.0741 35.3204 28.3549 35.3204C24.6357 35.3204 24.196 35.3082 22.7284 35.2476ZM22.6131 12.6285C21.1305 12.6892 20.1173 12.9003 19.2326 13.2096C18.3163 13.529 17.5406 13.9575 16.7655 14.6527C15.9904 15.3479 15.5146 16.0458 15.1591 16.869C14.8148 17.6643 14.5797 18.5739 14.5122 19.9058C14.4436 21.2397 14.4279 21.6662 14.4279 25.0638C14.4279 28.4615 14.4436 28.8879 14.5122 30.2219C14.5797 31.5539 14.8148 32.4634 15.1591 33.2587C15.5146 34.0814 15.9905 34.7801 16.7655 35.475C17.5405 36.1699 18.3163 36.5978 19.2326 36.9181C20.119 37.2273 21.1305 37.4385 22.6131 37.4992C24.0988 37.5598 24.5728 37.575 28.3549 37.575C32.1371 37.575 32.6118 37.5608 34.0968 37.4992C35.5795 37.4385 36.5919 37.2273 37.4773 36.9181C38.393 36.5978 39.1692 36.1702 39.9443 35.475C40.7195 34.7798 41.1942 34.0814 41.5508 33.2587C41.895 32.4634 42.1312 31.5538 42.1976 30.2219C42.2652 28.8869 42.2809 28.4615 42.2809 25.0638C42.2809 21.6662 42.2652 21.2397 42.1976 19.9058C42.1301 18.5738 41.895 17.6638 41.5508 16.869C41.1942 16.0463 40.7182 15.349 39.9443 14.6527C39.1705 13.9564 38.393 13.529 37.4784 13.2096C36.5919 12.9003 35.5794 12.6882 34.0979 12.6285C32.6129 12.5678 32.1382 12.5527 28.356 12.5527C24.5739 12.5527 24.0988 12.5668 22.6131 12.6285Z" fill="white"/>
</g>
</g>
</svg>
