<svg width="57" height="50" viewBox="0 0 57 50" fill="none" xmlns="http://www.w3.org/2000/svg">
<g id="Social Media / Linkedin">
<rect id="Logo Container" x="0.895935" width="55.6748" height="50" rx="25" fill="#0E2A38"/>
<g id="Group">
<path id="Vector" d="M22.3292 35.1316V21.6251H17.3347V35.1316H22.3297H22.3292ZM19.833 19.7814C21.5743 19.7814 22.6583 18.7442 22.6583 17.4481C22.6258 16.1224 21.5743 15.1143 19.8661 15.1143C18.1567 15.1143 17.0403 16.1224 17.0403 17.448C17.0403 18.7441 18.124 19.7813 19.8003 19.7813H19.8326L19.833 19.7814ZM25.0936 35.1316H30.0877V27.5898C30.0877 27.1866 30.1203 26.7824 30.2522 26.4945C30.6131 25.6877 31.4348 24.8524 32.8149 24.8524C34.6216 24.8524 35.3448 26.0909 35.3448 27.9068V35.1316H40.3387V27.3874C40.3387 23.239 37.8751 21.3085 34.5893 21.3085C31.8953 21.3085 30.7122 22.6619 30.0548 23.5837H30.0881V21.6256H25.0939C25.1591 22.8927 25.0935 35.132 25.0935 35.132L25.0936 35.1316Z" fill="white"/>
</g>
</g>
</svg>
