<svg width="57" height="50" viewBox="0 0 57 50" fill="none" xmlns="http://www.w3.org/2000/svg">
<g id="Social Media / Twitter">
<rect id="Logo Container" x="0.702515" width="55.6748" height="50" rx="25" fill="#0E2A38"/>
<g id="Capa 2">
<g id="ELEMENTS">
<path id="Vector" d="M42.3578 17.0842C41.4385 17.4399 40.4721 17.6875 39.4824 17.821C39.9451 17.7497 40.6259 17.0011 40.897 16.698C41.3087 16.2409 41.6225 15.7191 41.8224 15.1591C41.8224 15.1175 41.8687 15.0581 41.8224 15.0284C41.7991 15.017 41.7729 15.011 41.7464 15.011C41.7198 15.011 41.6937 15.017 41.6704 15.0284C40.5957 15.5515 39.4519 15.9508 38.2661 16.2168C38.2248 16.2281 38.1808 16.2291 38.1389 16.2197C38.097 16.2103 38.0587 16.1908 38.0282 16.1633C37.9359 16.0645 37.8365 15.9712 37.7307 15.884C37.2471 15.4945 36.6983 15.1757 36.1046 14.9393C35.3031 14.6437 34.4375 14.5157 33.5729 14.565C32.734 14.6126 31.915 14.8148 31.1668 15.1591C30.43 15.5221 29.7825 16.0153 29.2631 16.6089C28.7167 17.2199 28.3223 17.929 28.1063 18.6885C27.9282 19.4109 27.908 20.1576 28.0468 20.8869C28.0468 21.0117 28.0468 21.0295 27.9278 21.0117C23.2148 20.3878 19.3478 18.8846 16.1882 15.6582C16.0494 15.5156 15.9767 15.5156 15.8643 15.6582C14.4894 17.5358 15.157 20.5066 16.8756 21.9742C17.107 22.1703 17.345 22.3604 17.5962 22.5387C16.8082 22.4884 16.0394 22.2965 15.3355 21.9742C15.2033 21.897 15.1306 21.9386 15.124 22.0812C15.1052 22.2789 15.1052 22.4777 15.124 22.6754C15.2619 23.6228 15.6773 24.5203 16.3277 25.2762C16.9781 26.032 17.8401 26.619 18.8256 26.9771C19.0659 27.0696 19.3162 27.1393 19.5726 27.1851C18.8431 27.3142 18.0949 27.3343 17.3582 27.2445C17.1995 27.2148 17.1401 27.292 17.1995 27.4287C18.1712 29.8054 20.2799 30.5302 21.8267 30.9343C22.0382 30.964 22.2497 30.964 22.4877 31.0115C22.4877 31.0115 22.4877 31.0115 22.448 31.0472C21.9919 31.7958 20.1477 32.3009 19.3016 32.5623C17.7572 33.0609 16.1107 33.2515 14.4762 33.1208C14.2184 33.0852 14.1589 33.0911 14.0928 33.1208C14.0267 33.1505 14.0928 33.2159 14.1655 33.2753C14.496 33.4714 14.8265 33.6437 15.1702 33.8101C16.1935 34.3117 17.2753 34.7103 18.396 34.9984C24.1997 36.4363 30.7305 35.3787 35.0866 31.4869C38.5107 28.4328 39.7138 24.2202 39.7138 20.0016C39.7138 19.8412 39.9319 19.7461 40.0575 19.6629C40.9237 19.0562 41.6875 18.3397 42.3248 17.5358C42.4351 17.416 42.4917 17.2634 42.4834 17.108C42.4834 17.0189 42.4834 17.0367 42.3578 17.0842Z" fill="white"/>
</g>
</g>
</g>
</svg>
